<svg width="200" height="28" viewBox="0 0 200 28" fill="none" xmlns="http://www.w3.org/2000/svg">
<g id="Logo">
<path id="Vector" d="M15.0988 4.58475H4.20559V8.96835H14.2081V12.5465H4.20559V17.8401H15.6022V21.5422H0.00012207V0.952398H15.1026L15.0988 4.58475Z" fill="black"/>
<path id="Vector_2" d="M22.7276 4.49969H18.6886V0.828613H22.7276V4.49969ZM18.6886 6.31586H22.7276V21.5423H18.6886V6.31586Z" fill="black"/>
<path id="Vector_3" d="M25.0161 9.2898V6.45517H27.142V2.19548H31.0803V6.45517H33.5509V9.2898H31.0803V17.3367C31.0803 17.9602 31.1577 18.3474 31.3165 18.4985C31.4753 18.6495 31.9593 18.7308 32.7687 18.7308H33.1559C33.2915 18.7308 33.427 18.7308 33.5432 18.7076V21.6855L31.6573 21.7552C29.7804 21.8223 28.4896 21.4957 27.7848 20.7755C27.3356 20.3185 27.1149 19.6137 27.1149 18.6689V9.2898H25.0161Z" fill="black"/>
<path id="Vector_4" d="M42.5854 12.2793C43.1286 12.2317 43.6635 12.1146 44.177 11.9307C44.4215 11.8581 44.6365 11.7092 44.7904 11.5058C44.9444 11.3024 45.0293 11.0551 45.0328 10.8C45.0588 10.544 45.0106 10.2858 44.8939 10.0564C44.7771 9.82708 44.5968 9.63619 44.3745 9.5066C43.7668 9.23489 43.1028 9.11272 42.4382 9.15034C41.4856 9.15034 40.8105 9.38397 40.4129 9.85125C40.1039 10.2574 39.9087 10.7386 39.8476 11.2453H36.0061C36.0378 10.0632 36.4296 8.91888 37.1291 7.96537C38.185 6.62292 39.9999 5.9517 42.5738 5.9517C44.1183 5.92396 45.6474 6.26374 47.0348 6.94304C48.3256 7.60394 48.971 8.85216 48.971 10.6877V17.6581C48.971 18.1421 48.971 18.7269 48.9981 19.4162C48.9869 19.7845 49.0695 20.1496 49.2382 20.4772C49.3882 20.6806 49.5902 20.8398 49.823 20.938V21.5267H45.5091C45.3966 21.2466 45.3122 20.956 45.2574 20.6592C45.2109 20.3882 45.1722 20.0822 45.1451 19.7376C44.588 20.3371 43.9446 20.8501 43.236 21.2595C42.3444 21.7614 41.3352 22.0167 40.3123 21.9991C39.0628 22.052 37.8383 21.6378 36.8774 20.8374C35.9842 20.0474 35.5375 18.9321 35.5375 17.4916C35.5375 15.6173 36.2643 14.262 37.7177 13.4255C38.8185 12.8798 40.0131 12.5486 41.2378 12.4497L42.5854 12.2793ZM45.0211 14.138C44.7765 14.2925 44.517 14.4222 44.2467 14.5253C43.8989 14.6463 43.5413 14.737 43.1779 14.7964L42.2717 14.9667C41.6372 15.0476 41.0199 15.2307 40.4439 15.5089C40.144 15.6742 39.8967 15.9206 39.7303 16.2198C39.5639 16.5191 39.4851 16.8592 39.5029 17.2011C39.4774 17.4741 39.5159 17.7492 39.6154 18.0047C39.7149 18.2602 39.8726 18.4889 40.076 18.6727C40.4746 18.9832 40.969 19.1448 41.474 19.1296C42.3365 19.1273 43.177 18.8566 43.8788 18.3551C44.612 17.8517 44.9992 16.9339 45.0405 15.6018L45.0211 14.138Z" fill="black"/>
<path id="Vector_5" d="M64.3523 7.18702C65.3514 8.01056 65.8509 9.37753 65.8509 11.2879V21.5422H61.7694V12.2793C61.8014 11.6489 61.6929 11.0193 61.4518 10.436C61.0646 9.66151 60.325 9.27426 59.2329 9.27426C57.8931 9.27426 56.9714 9.84739 56.4757 10.9936C56.1925 11.7344 56.0608 12.5245 56.0885 13.3171V21.5576H52.1038V6.34283H55.9762V8.56561C56.3606 7.92538 56.8487 7.3535 57.4206 6.87335C58.3239 6.23398 59.4127 5.91006 60.5186 5.95171C61.9024 5.89647 63.261 6.33423 64.3523 7.18702V7.18702Z" fill="black"/>
<path id="Vector_6" d="M91.9164 7.37678C91.7909 6.7271 91.5072 6.11834 91.0905 5.60436C90.6737 5.09037 90.1368 4.68698 89.5271 4.42986C88.7811 4.1155 87.9782 3.95862 87.1688 3.96904C86.3902 3.95063 85.6176 4.10985 84.9097 4.43461C84.2018 4.75936 83.5772 5.24111 83.0833 5.8433C82.0146 7.0928 81.4814 8.97223 81.484 11.4816C81.4866 13.9909 82.0636 15.7813 83.215 16.8526C84.2761 17.8647 85.687 18.4279 87.1533 18.4249C88.4501 18.4767 89.7181 18.0337 90.7004 17.1857C91.634 16.3345 92.2374 15.1812 92.4043 13.929H87.6412V10.4941H96.2187V21.5422H93.3686L92.9348 18.9709C92.3019 19.7687 91.548 20.4625 90.7004 21.0271C89.4286 21.7596 87.9773 22.1217 86.5105 22.0727C85.2548 22.1116 84.0056 21.8784 82.8486 21.3891C81.6915 20.8999 80.654 20.166 79.8073 19.2381C78.0001 17.3406 77.0966 14.7448 77.0966 11.4506C77.0966 8.11771 78.013 5.44573 79.846 3.43464C81.6789 1.42355 84.1044 0.419298 87.1223 0.42188C89.7401 0.42188 91.8428 1.08536 93.4305 2.41231C94.9558 3.64291 95.9307 5.4283 96.1412 7.37678H91.9164Z" fill="black"/>
<path id="yellow_o" d="M112.282 19.6873C110.991 21.2698 109.04 22.0624 106.43 22.0649C103.82 22.0675 101.875 21.275 100.595 19.6873C99.2935 18.065 98.6078 16.035 98.6584 13.9561C98.6179 11.8857 99.3028 9.86647 100.595 8.24808C101.885 6.64231 103.836 5.83813 106.446 5.83555C109.056 5.83297 111.006 6.63714 112.297 8.24808C113.589 9.86647 114.274 11.8857 114.233 13.9561C114.28 16.0369 113.588 18.0671 112.282 19.6873V19.6873ZM109.114 17.48C109.739 16.6513 110.051 15.4741 110.051 13.9483C110.051 12.4264 109.737 11.2376 109.114 10.4283C108.782 10.0406 108.37 9.72945 107.907 9.5161C107.443 9.30274 106.939 9.19227 106.428 9.19227C105.918 9.19227 105.414 9.30274 104.95 9.5161C104.487 9.72945 104.075 10.0406 103.743 10.4283C103.116 11.2492 102.802 12.4264 102.802 13.9483C102.802 15.4702 103.116 16.659 103.743 17.48C104.074 17.8688 104.486 18.181 104.949 18.3951C105.413 18.6093 105.918 18.7201 106.428 18.7201C106.939 18.7201 107.444 18.6093 107.907 18.3951C108.371 18.181 108.783 17.8688 109.114 17.48V17.48Z" fill="#FDB913"/>
<path id="Vector_7" d="M120.642 21.5422H116.661V0.952398H120.642V21.5422Z" fill="black"/>
<path id="Vector_8" d="M132.55 6.55967C133.26 6.96672 133.857 7.54601 134.285 8.24418V0.979484H138.32V21.5421H134.447V19.4317C133.976 20.2391 133.31 20.9165 132.511 21.4027C131.675 21.8367 130.742 22.0475 129.801 22.0146C128.937 22.0224 128.083 21.832 127.304 21.4581C126.525 21.0842 125.843 20.5367 125.308 19.8576C124.093 18.4223 123.485 16.5764 123.485 14.32C123.485 11.7229 124.084 9.67828 125.281 8.1861C125.849 7.46261 126.579 6.88321 127.413 6.49497C128.247 6.10674 129.16 5.92061 130.079 5.9517C130.942 5.9354 131.794 6.145 132.55 6.55967V6.55967ZM133.526 17.4025C134.15 16.4359 134.457 15.2989 134.405 14.1497C134.405 12.2883 133.935 10.9562 132.995 10.1533C132.436 9.67501 131.722 9.41629 130.985 9.42528C130.479 9.39169 129.972 9.49688 129.52 9.72953C129.069 9.96219 128.689 10.3135 128.422 10.7458C127.847 11.7394 127.564 12.8748 127.605 14.0219C127.546 15.203 127.834 16.3755 128.434 17.3948C128.705 17.8095 129.081 18.1451 129.523 18.3675C129.966 18.5899 130.46 18.6912 130.955 18.6611C131.452 18.6852 131.947 18.5828 132.394 18.3633C132.841 18.1439 133.225 17.8147 133.51 17.4064L133.526 17.4025Z" fill="black"/>
<path id="Vector_9" d="M154.948 8.14737C156.087 9.58792 156.656 11.4493 156.656 13.7314C156.656 16.0962 156.094 18.0569 154.971 19.6137C154.076 20.7504 152.806 21.5326 151.388 21.8212C149.97 22.1098 148.495 21.8861 147.227 21.1898C146.641 20.7673 146.138 20.2426 145.739 19.6408V21.5538H141.809V0.979484H145.79V8.2984C146.23 7.65298 146.794 7.10252 147.451 6.67972C148.283 6.18421 149.241 5.94072 150.208 5.97881C152.243 5.97881 153.823 6.70166 154.948 8.14737ZM151.622 17.4412C152.241 16.4602 152.542 15.3121 152.485 14.1535C152.512 13.2406 152.369 12.3307 152.063 11.4699C151.859 10.8569 151.458 10.328 150.924 9.96488C150.389 9.60172 149.75 9.42436 149.105 9.46013C148.459 9.41844 147.817 9.58775 147.276 9.94256C146.734 10.2974 146.323 10.8185 146.103 11.4273C145.795 12.2968 145.652 13.2161 145.681 14.138C145.638 15.2768 145.942 16.4018 146.553 17.3638C146.847 17.7896 147.247 18.1319 147.713 18.3572C148.18 18.5825 148.696 18.6832 149.213 18.6494C149.686 18.6685 150.156 18.5656 150.578 18.3506C151 18.1356 151.359 17.8158 151.622 17.4219V17.4412Z" fill="black"/>
<path id="Vector_10" d="M169.346 6.62552C170.417 7.1118 171.329 7.89193 171.975 8.87541C172.613 9.81938 173.027 10.896 173.187 12.0237C173.31 13.0256 173.354 14.0355 173.319 15.0442H162.228C162.29 16.5725 162.822 17.6439 163.824 18.2583C164.491 18.6593 165.261 18.8584 166.039 18.8315C166.661 18.879 167.283 18.7378 167.823 18.4262C168.363 18.1145 168.797 17.6471 169.067 17.085H173.129C173.026 17.9886 172.534 18.9063 171.654 19.8383C170.291 21.3176 168.382 22.0572 165.927 22.0572C163.974 22.0836 162.074 21.4199 160.563 20.1829C159.014 18.936 158.24 16.9043 158.24 14.0877C158.24 11.4493 158.939 9.42788 160.339 8.02347C161.738 6.61907 163.553 5.91428 165.783 5.90912C167.008 5.8937 168.222 6.13786 169.346 6.62552V6.62552ZM163.39 10.0643C162.793 10.7146 162.42 11.5402 162.329 12.4187H169.187C169.184 11.9654 169.089 11.5175 168.906 11.1026C168.724 10.6877 168.458 10.3145 168.126 10.0062C167.467 9.44971 166.626 9.15721 165.764 9.1852C165.329 9.15925 164.893 9.22398 164.485 9.37531C164.076 9.52663 163.703 9.76124 163.39 10.0643V10.0643Z" fill="black"/>
<path id="Vector_11" d="M184.096 5.95948L184.437 5.97885V10.0604C184.185 10.0333 183.964 10.0139 183.767 10.0023H183.294C181.691 10.0023 180.615 10.5186 180.065 11.5513C179.75 12.1399 179.592 13.0448 179.592 14.2659V21.5461H175.596V6.31575H179.395V8.96837C179.82 8.20207 180.362 7.50695 181.002 6.90823C181.826 6.25683 182.857 5.92414 183.906 5.9711L184.096 5.95948Z" fill="black"/>
<path id="Vector_12" d="M193.804 6.30025C194.81 6.7469 195.63 7.52645 196.128 8.50754V6.31574H200V20.7599C200 22.7246 199.67 24.2051 199.009 25.2016C197.873 26.9133 195.694 27.7691 192.472 27.7691C190.523 27.7691 188.935 27.3818 187.709 26.6073C187.116 26.2464 186.619 25.7458 186.264 25.1491C185.908 24.5524 185.703 23.8778 185.668 23.1841H190.048C190.113 23.5703 190.303 23.9242 190.59 24.1909C191.021 24.5498 191.743 24.7305 192.755 24.7331C194.191 24.7331 195.148 24.2529 195.632 23.2964C195.95 22.6794 196.108 21.6467 196.108 20.1984V19.2381C195.8 19.8023 195.383 20.2998 194.881 20.7019C193.979 21.3436 192.888 21.664 191.783 21.6119C190.897 21.646 190.015 21.4782 189.203 21.1213C188.391 20.7645 187.671 20.2277 187.097 19.5517C185.928 18.1757 185.344 16.3157 185.347 13.9716C185.347 11.7075 185.908 9.80481 187.031 8.26358C188.154 6.72235 189.75 5.94786 191.818 5.94011C192.497 5.93004 193.172 6.05236 193.804 6.30025V6.30025ZM195.16 17.2167C195.802 16.5158 196.12 15.3966 196.12 13.8593C196.12 12.4135 195.817 11.3151 195.21 10.5638C194.92 10.1946 194.547 9.89936 194.121 9.70216C193.694 9.50495 193.228 9.41141 192.759 9.42918C192.129 9.39739 191.507 9.57301 190.987 9.92909C190.468 10.2852 190.079 10.802 189.881 11.4003C189.581 12.2272 189.439 13.1036 189.463 13.9832C189.45 14.7926 189.601 15.5964 189.909 16.3454C190.116 16.9376 190.511 17.4465 191.032 17.7957C191.554 18.1448 192.175 18.3153 192.801 18.2816C193.248 18.288 193.691 18.1959 194.099 18.0118C194.507 17.8278 194.869 17.5563 195.16 17.2167V17.2167Z" fill="black"/>
</g>
</svg>